<svg id="Layer_2" data-name="Layer 2" xmlns="http://www.w3.org/2000/svg" viewBox="0 0 264.56 228.46"><defs><style>.cls-1{fill:#88c657;}.cls-2{fill:#e5e7ea;}.cls-3{fill:#0da84b;}.cls-4{fill:none;stroke:#0da84b;stroke-linecap:round;stroke-miterlimit:10;stroke-width:3px;}.cls-5{fill:#fee000;}</style></defs><title>BarxBuddy Icons</title><polygon class="cls-1" points="195.71 83.34 196.65 87.46 200.38 84.94 195.71 83.34"/><polygon class="cls-1" points="200.94 85.4 201.87 89.52 205.57 86.84 200.94 85.4"/><polygon class="cls-1" points="206.13 87.46 207.06 91.58 210.79 89.06 206.13 87.46"/><polygon class="cls-1" points="211.55 96.09 210.33 92.05 206.78 94.82 211.55 96.09"/><polygon class="cls-1" points="205.61 94.07 204.39 90.02 200.89 92.95 205.61 94.07"/><polygon class="cls-1" points="199.85 92.69 198.63 88.65 195.08 91.42 199.85 92.69"/><ellipse class="cls-2" cx="101.69" cy="195.3" rx="95.04" ry="6.5"/><path class="cls-1" d="M147.62,150.6l10,7.69c1.89,1.69,5.13,4.09,4.29,6.71l-3.73,11.65c-1.79,5.58-.8,12.87,4.74,14.79h0a10.8,10.8,0,0,0,13.76-6.66l8.2-23.72a6.06,6.06,0,0,0-1.5-6.32l-20.76-22.19c-2.95-2.6-1.93.32-2.56,0h0a6,6,0,0,0-7.26,1.78l-7.4,9.47C143.24,146.65,144.61,148.68,147.62,150.6Z"/><rect class="cls-3" x="28.9" y="111.72" width="21.9" height="84.4" rx="9.81" transform="translate(30.5 312.64) rotate(-162.11)"/><line class="cls-4" x1="236.1" y1="73.29" x2="255.36" y2="56.9"/><line class="cls-4" x1="222.77" y1="63.37" x2="231.05" y2="39.47"/><rect class="cls-3" x="128.36" y="121.44" width="21.9" height="72.96" rx="9.81" transform="translate(234.55 345.75) rotate(-165.47)"/><rect class="cls-1" x="46.18" y="70.08" width="17.63" height="60.9" rx="7.89" transform="translate(76.46 213.09) rotate(-162.11)"/><polygon class="cls-1" points="45.22 154.94 157.4 153.65 172.76 102.84 44.26 104.99 45.22 154.94"/><path class="cls-1" d="M217.19,90.05c-.35,1.09-.76,1.49-1.86,1.2l-12-4.84a38.8,38.8,0,0,0-4.84-1.76c-1.4-.43-3.05-1.12-3.07-1.12-2.91-.78-4.9,5.43-2.17,6.72.15.06,3.38.89,3.53.93l14.53,4.18a2.55,2.55,0,0,1,1.77,3.41l-1.56,4a3,3,0,0,1-3.39,1.83l-32.08-4.27a2.56,2.56,0,0,0-.39,0,2.94,2.94,0,0,0-2.9,2.53l-33.89,2.63,18.3-34.2,1.69-3.16,4.27-7.63,6.18-1.58,2.93-.75c.25,0,.93-.14.93-.14l3.32-.78,3.66.75c4.15.87,8.64.67,12.3,2.57,5,2.61,5.82,8.23,7.4,8.57,8.94,2,17.06,3.77,18.88,4.28C223.6,74.75,218.51,85.91,217.19,90.05Z"/><polygon class="cls-5" points="169.67 116.66 139.31 101.81 142.16 95.45 171.6 110.47 169.67 116.66"/><path class="cls-1" d="M70.9,200.85A10.68,10.68,0,0,1,57.44,194l-1.15-3.54h0l-17-48.6c-1-2.7-3.28-6.31-3-9.17.44-5.15,3.12-11.85,3.29-13.39l39.89,34.5c-3.06,0-11.52,2.16-10,7L74.76,178a11.5,11.5,0,0,1,.44,1.68s0,0,0,0l1.24,3.74,1.29,4a9.48,9.48,0,0,1,.33,1.27h0A10.7,10.7,0,0,1,70.9,200.85Z"/><g id="Layer_1" data-name="Layer 1"><path class="cls-3" d="M180.59,56.62a5.21,5.21,0,0,0-.44,1.36c-.59,2.47-1.48,7.68-3.13,11.93-1.19,3.07-3.38,9.68-7.31,15A6.51,6.51,0,0,1,158.1,82.5a1.57,1.57,0,0,1-.06-.28,56.14,56.14,0,0,1-.87-11c0-3.35.18-6.65.38-9.37l5.58-1.42,6.18-1.58,2.93-.75c.25,0,.93-.14.93-.14l3.32-.78,2.21-.52a11.74,11.74,0,0,1,1.57-.33Z"/></g></svg>