<svg id="Layer_2" data-name="Layer 2" xmlns="http://www.w3.org/2000/svg" viewBox="0 0 264.56 228.46"><defs><style>.cls-1{fill:#e5e7ea;}.cls-2{fill:#0da84b;}.cls-3{fill:#88c657;}.cls-4{fill:#fee000;}.cls-5{fill:#010101;}</style></defs><title>BarxBuddy Icons</title><ellipse class="cls-1" cx="127.96" cy="187.23" rx="103.54" ry="6.53"/><path class="cls-2" d="M141.66,187.52h-.54a10.52,10.52,0,0,1-9-4.92,9.76,9.76,0,0,1-.82-1.32.82.82,0,0,0-.06-.16,17.35,17.35,0,0,1-.74-2.52,2.51,2.51,0,0,1,0-.27l-.05-2.47-.78-35.68a5.06,5.06,0,0,0-2.09-4L155,143.54a5.11,5.11,0,0,0-3.4,4.86l.16,17.13a1.34,1.34,0,0,0,0,.2,13.66,13.66,0,0,1,.19,1.83L152,177A10.52,10.52,0,0,1,141.66,187.52Z"/><path class="cls-2" d="M78.31,146.62a5.1,5.1,0,0,0-1.91,3.31l-4.21,30a11.06,11.06,0,0,1-21.9-3.07l9.42-67.19,11.63,7.83s2,10.45,6.42,16.07C80.6,137.19,75.47,145.65,78.31,146.62Z"/><path class="cls-3" d="M90.72,190.8a11.21,11.21,0,0,1-14.08-7.17l-1.2-3.7v0L57.6,129.08a21.14,21.14,0,0,1-1.12-8.82c.45-5.39,1.2-13.17,1.38-14.78l40.56,39.45c-3.2,0-10.88-1.11-9.31,4l5.64,18a11.1,11.1,0,0,1,.47,1.76s0,0,0,0l1.3,3.91,1.35,4.16a12.35,12.35,0,0,1,.34,1.33v0A11.19,11.19,0,0,1,90.72,190.8Z"/><path class="cls-3" d="M174.6,97.2a22.21,22.21,0,0,0-1.22,2.85l-5.51,12.3.1-1.21v0h0c-.13,1.59-2.76,34.05-2.76,35.35v33.75a11.06,11.06,0,0,1-22.12,0V149.43a5.08,5.08,0,0,0-5.09-5.11l-20.79.18c-1.09,0-30.78.71-30.78.71H83.74l.85-.35c-3-.55-6.34-3.14-9.66-6.3-5.2-5-17.56-26.12-17.56-26.12v-1.85a5.25,5.25,0,0,0-.17-1.32h0a5,5,0,0,0-1.58-2.52L36.43,90.12a.74.74,0,0,0-.17-.12,6.92,6.92,0,0,1,6.79-12,2.2,2.2,0,0,1,.25.17L61.79,93.39A5.15,5.15,0,0,0,65,94.55l77.8-.21v0Z"/><path class="cls-3" d="M82.62,145.27A4.9,4.9,0,0,0,81,146.36l2.76-1.15h-1Z"/><path class="cls-3" d="M219.37,84.63c-.35,1.09-.76,1.49-1.86,1.2l-12-4.84a38.8,38.8,0,0,0-4.84-1.76c-1.4-.43-3-1.12-3.07-1.12-2.91-.78-3.44,2.8-.71,4.09.15.06,4.19,1.1,4.34,1.14l12.92,3.23A2.55,2.55,0,0,1,215.92,90l-1.56,4c-.53,1.35-.36,3.91-3.39,3.8l-31.82-4.72a2.47,2.47,0,0,1-.39,0c-2.53-.66-5.38,7-6.07,8.54l-31.64-1.53,18.3-34.2L161,62.69l4.27-7.63,6.18-1.58,2.93-.75c.25,0,.93-.14.93-.14l3.32-.78,3.66.75c4.15.87,8.64.67,12.3,2.57,5,2.61,5.82,8.23,7.4,8.57,8.94,2,17.8,5.28,19.25,6.49C225.88,74,220.69,80.49,219.37,84.63Z"/><path class="cls-2" d="M182.77,51.2a5.21,5.21,0,0,0-.44,1.36c-.59,2.47-1.48,7.68-3.13,11.93-1.19,3.07-3.38,9.68-7.31,15a6.51,6.51,0,0,1-11.61-2.45,1.57,1.57,0,0,1-.06-.28,56.14,56.14,0,0,1-.87-11c0-3.35.18-6.65.38-9.37l5.58-1.42,6.18-1.58,2.93-.75c.25,0,.93-.14.93-.14l3.32-.78,2.21-.52a11.74,11.74,0,0,1,1.57-.33Z"/><path class="cls-4" d="M215.54,93.3a9,9,0,0,0-2.59.38,5.89,5.89,0,0,0-1.4.14,7.64,7.64,0,0,0-2.66-.29,6.42,6.42,0,0,0-2.78-.57,5.68,5.68,0,0,0-1.1-.67,6.3,6.3,0,0,0-4.87-2.39,5.19,5.19,0,0,0-5,3.44,8.39,8.39,0,0,0-1.1,4.22c-1.2,1.56-3,2.73-3.68,4.61a5.19,5.19,0,0,0-.2,2.6c0,.15.05.42.09.7-2.34,3.47-3.8,7.42-2.66,11.8.5,1.93,2.92,3.58,4.92,2.79a31,31,0,0,0,5.44-2.28,4.07,4.07,0,0,0,2-3.28l.27-.31a4.42,4.42,0,0,0,1.62-.28,4.13,4.13,0,0,0,2.87-3.38,3.81,3.81,0,0,0,1.83-2c3.23.06,6.5-.74,6.59-4.45a4.28,4.28,0,0,0,1.23-.31,6.91,6.91,0,0,0,1-.19,5.8,5.8,0,0,0,6.15-1.76,5.08,5.08,0,0,0,.38-.53,4.45,4.45,0,0,0,.38-.48C225.41,96.09,219.42,93.29,215.54,93.3Z"/><path class="cls-4" d="M188.43,137.8l0-.12a4,4,0,0,0,1.25-2.52,4.08,4.08,0,0,0-1.48-3.24l0-.06a2.49,2.49,0,0,0-3.37-3.2l-.52.17a2.18,2.18,0,0,0-1.81.55.94.94,0,0,1-.1.1l-.71.25c-1.36.46-2.68,1-3.25,2.42a3.81,3.81,0,0,0,.83,3.82c.14.16.3.31.46.46a4.18,4.18,0,0,0-2.06,1.56,2.56,2.56,0,0,0,.6,3.49c2.39,1.66,6.34,3.41,8.81.92A4.91,4.91,0,0,0,188.43,137.8Z"/><path class="cls-4" d="M191.68,157.35v0h0Z"/><path class="cls-4" d="M195.23,164.08v0l0,0v0h0Z"/><path class="cls-4" d="M200.7,157.77a2.08,2.08,0,0,0-1.16-1.36,9.73,9.73,0,0,0-5.07-1l-.12,0a1.36,1.36,0,0,0-.45-.12,2,2,0,0,0-2.17,1.8c0,.07,0,.15,0,.23,0-.13.07-.22,0,0h0s0,.07,0,.11,0-.07,0-.1a4.62,4.62,0,0,1-.23.62,1.51,1.51,0,0,1-.09.18,5,5,0,0,1-.41.58,2.07,2.07,0,0,0-.27,1.81,2.15,2.15,0,0,0,1.15,1.36l0,0a3.45,3.45,0,0,0-.33.7,3.59,3.59,0,0,0,.35,3.29,3.06,3.06,0,0,0,3.2,1.05c.85-.17,1.7-.32,2.55-.5a4.68,4.68,0,0,0,2.21-1,3,3,0,0,0,.83-3.37,3,3,0,0,0-1.16-1.41c.29-.38.59-.75.92-1.11A2,2,0,0,0,200.7,157.77Z"/><path class="cls-5" d="M166.88,112.35l0,.09v0Z"/><polygon class="cls-4" points="169.08 111.4 141.28 93.86 144.54 88.7 171.83 105.91 169.08 111.4"/><path class="cls-2" d="M247.91,84c0,.09,0,.18,0,.28a4.63,4.63,0,0,1-.2,1.1l-.2.68a21.49,21.49,0,0,0-.94,4.23,4.89,4.89,0,0,0-.05.55,10.25,10.25,0,0,0,.11,2.33,33.42,33.42,0,0,1,.46,4.44,34.6,34.6,0,0,1-.06,3.81,33.9,33.9,0,0,1-1.24,8.13,11,11,0,0,0-.33,3.48,27.09,27.09,0,0,0,.5,3.67l.13.73a4.5,4.5,0,0,1,.08,1.1.76.76,0,0,1,0,.15,3,3,0,0,1-.94,2,3,3,0,0,1-2.22.73,4.64,4.64,0,0,1-1.43-.32l-.16-.06c-1.83-.73-4.68-1.86-7.62-1.37a58.09,58.09,0,0,1-13.68.58H220a58.26,58.26,0,0,1-13.48-2c-2.64-.74-5.27-.11-7.72.63h-.09l-.14,0a4.77,4.77,0,0,1-1.35.14h-.32a2.88,2.88,0,0,1-2.45-2.06,5.31,5.31,0,0,1,1.1-.65,24.3,24.3,0,0,0,2.72-.78,2.18,2.18,0,0,0,1.08-1.85l.21-.13a4.49,4.49,0,0,0,1.74-2.86,2.87,2.87,0,0,0,.48-.76.52.52,0,0,0,.06-.15l.71-.88.08,0a4,4,0,0,0,.89-.36h0a2.94,2.94,0,0,0,1.05-.55,4.88,4.88,0,0,0,1.19-1.58l.27-.2a3.23,3.23,0,0,0,.55-.5,10.35,10.35,0,0,0,1-1.22.8.8,0,0,0,.19-.13c.37-.18.72-.37,1.1-.54,1.06-.19,2.14-.31,3.18-.57a6.83,6.83,0,0,0,2.8-1.32c.31-.15.6-.3.9-.47l.09-.05q1-.55,2-1.2h0a33.52,33.52,0,0,0,3.69-1.86c.24-.16-1.59-.67-2-.65a.46.46,0,0,0-.21,0l-.86,0a.4.4,0,0,0-.2,0l-.37,0L216.86,97a9.72,9.72,0,0,0-2.91-.78c-.09,0-1.67-.14-1.79-.18s-2.41-.78-3-.93a.36.36,0,0,0-.22-.05c-1-.26-2-.46-3.07-.64l-7-1.15a9.8,9.8,0,0,0-2.78-1.2c.11-.51.24-1,.38-1.53a15.65,15.65,0,0,0-.16-7.14l-.14-.73a4.58,4.58,0,0,1-.08-1.11,1.43,1.43,0,0,1,0-.29,16.46,16.46,0,0,1,.38-3.28c.4-.59,2.44.68,2.78.72a4.36,4.36,0,0,1,1.43.31l.16.06c1.83.73,3.73,1.47,6.56,2.39,3.91,1.26,5.93,3.52,11.65,3.8s7.89-5.2,16.64-3.43a12.9,12.9,0,0,0,5.14,0l.46-.1c.7-.15,1.39-.34,2.07-.55h.14l.18,0a3,3,0,0,1,.51-.08,3.44,3.44,0,0,1,.72,0h.32a.22.22,0,0,1,.08,0,2.86,2.86,0,0,1,2.55,2.66A1.7,1.7,0,0,1,247.91,84Z"/></svg>