<svg id="Layer_2" data-name="Layer 2" xmlns="http://www.w3.org/2000/svg" viewBox="0 0 264.56 228.46"><defs><style>.cls-1{fill:#e5e7ea;}.cls-2{fill:#0da84b;}.cls-3{fill:#88c657;}.cls-4{fill:#fee000;}</style></defs><title>BarxBuddy Icons</title><path class="cls-1" d="M257.94,163.91c0,2.83-7.95,5.35-20.25,6.93-1.55.2-3.18.38-4.86.55-7.5.74-16.23,1.18-25.56,1.18a250.93,250.93,0,0,1-29-1.57l-.54-.07c-12.79-1.55-21.12-4.13-21.12-7,0-2.34,5.43-4.45,14.26-6,1-.18,2.08-.35,3.19-.51a233.76,233.76,0,0,1,33.22-2.13c8.46,0,16.43.35,23.43,1l2,.19C247.8,157.94,257.94,160.72,257.94,163.91Z"/><rect class="cls-2" x="132.07" y="117.28" width="18.73" height="46.88" rx="9.37" transform="translate(-23.52 28.49) rotate(-10.62)"/><path class="cls-3" d="M237.69,170.84c-1.55.2-3.18.38-4.86.55-7.5.74-16.23,1.18-25.56,1.18a250.93,250.93,0,0,1-29-1.57l-.54-.07c-.31-1.77-1.19-3.79-3.28-7.48a54.53,54.53,0,0,0-3.58-5.54c-10.62-14.58-28-24.46-45.43-28.07l-1-.6h0l-8.54-5.07-2.47-5.61s1.73-10,5.82-16,14.11-5.88,14.11-5.88l10.07-.42s2.81,0,3.31,0a97.51,97.51,0,0,1,26.05,5.43,106.1,106.1,0,0,1,45.83,32.21,101.59,101.59,0,0,1,10.32,15c1.37,2.44,2.64,4.93,3.79,7.49,1,2.09,1.83,4.22,2.63,6.39.36.94.69,1.89,1,2.84Z"/><path class="cls-4" d="M129,159.69a32.82,32.82,0,0,1-4.47-4.27c0-.07,0-.13,0-.2a4.8,4.8,0,0,0-1.2-2.31,19.72,19.72,0,0,1-1.59-4.48,2.18,2.18,0,0,0-1.5-1.67,15.44,15.44,0,0,1-.35-1.53,2.83,2.83,0,0,0,.21-1.8c-.06-.32-.16-.63-.24-1a17.88,17.88,0,0,0-2.92-9.87,23.8,23.8,0,0,0-5.67-5.43,29.47,29.47,0,0,0-10.33-7.58c-9.87-4.27-25-3.69-29.88,7.6-.24.53-.45,1.08-.65,1.63a33.82,33.82,0,0,0-18.52,17.61,34.48,34.48,0,0,0-2.38,3.48,2.59,2.59,0,0,0,1.57,3.7,2.53,2.53,0,0,0,3.58-.36s0,.05,0,.08c-.7,2,1.92,4.08,3.67,2.82a41.53,41.53,0,0,0,7.91-7.41,55.05,55.05,0,0,1,.15,5.75A2.49,2.49,0,0,0,68.5,157a2.54,2.54,0,0,0,2.75-1.79l.18-.49c.15.24.28.48.45.71a2.71,2.71,0,0,0,1.5,1.14,2.48,2.48,0,0,0,1.92-.25,2.83,2.83,0,0,0,1.26-2.47,2.35,2.35,0,0,0,2-.69,16.45,16.45,0,0,0,3.67-6.3h.07l.36-.07a2.37,2.37,0,0,0,2.85.29c.57-.32,1.13-.66,1.67-1a2.19,2.19,0,0,0-.11.67,2.33,2.33,0,0,0,.75,1.75,2.57,2.57,0,0,0,2.18,1.4,27.86,27.86,0,0,0,5.71-.68h2.22a2.82,2.82,0,0,0,.74.72,34.05,34.05,0,0,1,2.8,2.1,2.52,2.52,0,0,0,1.17,1.68l1.58,1a2.47,2.47,0,0,0-.16,4.77,2.69,2.69,0,0,0,2.08,3.67,2.48,2.48,0,0,0,2.38,1.79l18.72-.85C129.15,163.87,130.81,161.13,129,159.69Zm-23-14.44-.08-.05a3.49,3.49,0,0,0,0-.46l1.53,1a3,3,0,0,0,.07.51Z"/><path class="cls-4" d="M107.34,158.11a5.41,5.41,0,0,0-1-2.19,2.1,2.1,0,0,0-.06-.24,7.12,7.12,0,0,0-2.06-3.21,9.61,9.61,0,0,0-3.71-1.92,18,18,0,0,0-2.54-.45A13.75,13.75,0,0,0,93.07,149a14.59,14.59,0,0,0-3.17.24c-2.18-3.5-6.48-5.27-10.52-5.24a13,13,0,0,0-6.87,1.84,10.68,10.68,0,0,0-1.06.82l-.77.32a12.29,12.29,0,0,0-12.57,2.14,14.54,14.54,0,0,0-2.47-.22,15.66,15.66,0,0,0-3.49.35,10.14,10.14,0,0,0-4.68.1,12.85,12.85,0,0,0-4.29,1.68,6.57,6.57,0,0,0-3,4.7,4.43,4.43,0,0,0,0,1.26l-8.83.33c-3.2.11-3.31,4.88-.07,5,7.34.27,23.14.72,23.52.41q19.59.67,39.19.44c.25,0,.48-1.05.69-1.1.4.31,7.8-.11,10.88-.93A2.55,2.55,0,0,0,107.34,158.11Z"/><path class="cls-3" d="M161.36,66.65c-3.55-.37-7,1.12-10.16,2.88A76.43,76.43,0,0,0,131.7,85c-7.85,8.73-14.4,19.53-17.55,30.79-.64,2.32,3.74,2.85,4.38.54.11-.38.24-.76.35-1.15a28.6,28.6,0,0,0,5.54-.2c2.78.06,10.8-6,12.79-8.18,1.55-1.7,2.33-6.57,11.24-15.49,10.19-10.18,19.12-11.58,20.25-17.51C169.43,70,165,67,161.36,66.65Z"/><rect class="cls-3" x="104.97" y="98.5" width="20.91" height="72.11" rx="10.46" transform="translate(82.74 -39.69) rotate(30)"/><path class="cls-2" d="M56.55,122.88a22.69,22.69,0,0,1-.83-13.32c.46-1.87-2.43-2.67-2.89-.79a25.55,25.55,0,0,0,.82,14.91,1.56,1.56,0,0,0,1.85,1A1.52,1.52,0,0,0,56.55,122.88Z"/><path class="cls-2" d="M48.5,127.93a22.6,22.6,0,0,0-11.25-8.45,1.5,1.5,0,1,0-.8,2.89,19.6,19.6,0,0,1,9.46,7.07A1.54,1.54,0,0,0,48,130,1.52,1.52,0,0,0,48.5,127.93Z"/></svg>