<svg id="Layer_2" data-name="Layer 2" xmlns="http://www.w3.org/2000/svg" viewBox="0 0 264.56 228.46"><defs><style>.cls-1,.cls-5{fill:#0da84b;}.cls-2{fill:#88c657;}.cls-3{fill:#e5e7ea;}.cls-4{fill:#fee000;}.cls-5,.cls-6{stroke:#0da84b;stroke-miterlimit:10;}.cls-6{fill:none;stroke-linecap:round;stroke-width:3px;}</style></defs><title>BarxBuddy Icons</title><rect class="cls-1" x="101.43" y="118.07" width="20.38" height="67.9" rx="10.19" transform="translate(-58.3 70.18) rotate(-28)"/><rect class="cls-2" x="75.78" y="108.72" width="20.54" height="89.01" rx="10.27" transform="matrix(0.99, 0.15, -0.15, 0.99, 23.93, -11.17)"/><path class="cls-1" d="M209.9,70.41a9.28,9.28,0,0,1-7.37,9.08h0L168.9,90.38l-6.42,3.53-2.55-19.54c1.43-.88,25.08-8.69,37.83-12.87a7,7,0,0,1,2.38-.35h.48A9.28,9.28,0,0,1,209.9,70.41Z"/><path class="cls-2" d="M160.22,100l9.71,4.57c2.14.93,6.28,3.54,6.3,6.06l.12,11.22c.05,5.38,2.4,10,7.77,10.07h0a9.91,9.91,0,0,0,10.06-9.78l.3-23a5.57,5.57,0,0,0-3.13-5.06l-24.5-13.34c-.57-.28-1.58.84-2.21.78h0a5.55,5.55,0,0,0-5.81,3.65l-3.71,10.38C154,98.61,157.05,99.2,160.22,100Z"/><path class="cls-2" d="M140.56,55.29l2.71-20.09,1.78-16.68L150.89,15A34.3,34.3,0,0,1,165,10c5.44-.93,7.6,4.39,7.6,4.39l11-2.54c9.58-1.44,9.49,7.64,9.49,7.64.4,6.56-4.24,9-6.33,11.72L171.56,45.22,173,84l-6.61,16.57L138.31,80.34l1.18-17.09Z"/><polygon class="cls-2" points="96.32 154.02 74.11 120.34 145.01 56.47 174.15 88.82 96.32 154.02"/><ellipse class="cls-3" cx="144.74" cy="214.33" rx="79.32" ry="4.67"/><polygon class="cls-4" points="172.94 60.39 139.18 61.11 139.05 54.97 172.83 54.24 172.94 60.39"/><path class="cls-5" d="M74,203.86c-6.47.91-12.31-4.6-12.5-11,0-1.29-2-1.11-2,.17.21,7.42,7.17,13.86,14.66,12.8C75.44,205.67,75.28,203.68,74,203.86Z"/><line class="cls-6" x1="174.04" y1="134.74" x2="150.54" y2="155.25"/><line class="cls-6" x1="181.98" y1="140.5" x2="166.87" y2="153.69"/><g id="Layer_1" data-name="Layer 1"><rect class="cls-2" x="65.55" y="89.07" width="14.07" height="51.86" rx="7.04" transform="translate(208.25 105.59) rotate(118.29)"/><path class="cls-1" d="M144.23,42.31c-.06-.07-.1-.14-.15-.21-3.12-4.26-6-11.34-7.83-16.24l8.41-6.73,2.09-1.67c.18-.14.7-.46.7-.46l4-3.08a11.77,11.77,0,0,1,1.15-.84l.35.08c-.17.87,1.69,6.86,2,12.05.17,2.92.82,9.06-.39,14.83A5.78,5.78,0,0,1,144.23,42.31Z"/></g></svg>