<svg id="Layer_2" data-name="Layer 2" xmlns="http://www.w3.org/2000/svg" viewBox="0 0 264.56 228.46"><defs><style>.cls-1{fill:none;stroke:#0da84b;stroke-linecap:round;stroke-miterlimit:10;stroke-width:3px;}.cls-2{fill:#e5e7ea;}.cls-3{fill:#88c657;}.cls-4{fill:#0da84b;}.cls-5{fill:#fee000;}</style></defs><title>BarxBuddy Icons</title><line class="cls-1" x1="124.87" y1="93.19" x2="134.65" y2="84.88"/><line class="cls-1" x1="118.11" y1="88.16" x2="122.31" y2="76.04"/><ellipse class="cls-2" cx="54.64" cy="165.04" rx="46.77" ry="3.16"/><ellipse class="cls-2" cx="211.5" cy="166.02" rx="46.77" ry="3.16"/><rect class="cls-3" x="170.18" y="124.26" width="11.11" height="42.82" rx="5.56" transform="translate(-33.21 53.78) rotate(-15.92)"/><rect class="cls-3" x="223.99" y="124.5" width="11.11" height="42.82" rx="5.56" transform="translate(-34.82 81.95) rotate(-18.84)"/><rect class="cls-3" x="218.05" y="91.24" width="8.94" height="36.73" rx="4.47" transform="translate(59.14 -77.04) rotate(22.58)"/><polygon class="cls-3" points="232.8 139.57 167.96 138.83 160.16 113.06 225.35 114.14 232.8 139.57"/><rect class="cls-4" x="79.37" y="124.26" width="11.11" height="42.82" rx="5.56" transform="translate(206.55 262.46) rotate(164.08)"/><rect class="cls-4" x="18.44" y="124" width="11.11" height="42.82" rx="5.56" transform="matrix(-0.95, -0.32, 0.32, -0.95, -0.26, 290.78)"/><rect class="cls-4" x="26.88" y="91.24" width="8.94" height="36.73" rx="4.47" transform="translate(102.39 198.78) rotate(157.42)"/><polygon class="cls-4" points="20.74 139.08 85.58 138.33 93.38 112.56 28.19 113.65 20.74 139.08"/><path class="cls-4" d="M115.77,108.1a1.17,1.17,0,0,0,1.41-.77c.73-2.28,3.31-8,.63-8.69-1.16-.32-5.48-1.28-11.24-2.54-.79-.17-.56-1.45-2.93-3.36-1.14-.92-2.93-.87-4.48-1.15a16.74,16.74,0,0,0-14.27,4.14h0l-11,20.54,17.56,1.79,1.26-4.9L112,115.8a1.65,1.65,0,0,0,1.87-1l.86-2.2a1.41,1.41,0,0,0-1-1.88l-8.19-2a1.13,1.13,0,0,1-.24-.08c-1.5-.71-.52-3,1.08-2.59h0Z"/><path class="cls-3" d="M137,108.1a1.16,1.16,0,0,1-1.41-.78c-.73-2.28-3.31-7.95-.63-8.69,1.15-.32,5.48-1.28,11.24-2.54.79-.17.56-1.45,2.93-3.36,1.14-.92,2.93-.86,4.48-1.15a16.77,16.77,0,0,1,14.27,4.14h0l11,20.54-17.56,1.79-1.27-4.9-19.26,2.64a1.64,1.64,0,0,1-1.86-1l-.86-2.2a1.41,1.41,0,0,1,1-1.88l8.19-2,.23-.09c1.51-.71.53-3-1.07-2.59h0Z"/><polygon class="cls-5" points="177.57 112.45 160.82 118.2 159.85 115.36 176.61 109.61 177.57 112.45"/><polygon class="cls-5" points="92.04 119.08 76.14 111.3 77.46 108.61 93.38 116.39 92.04 119.08"/><g id="Layer_1" data-name="Layer 1"><path class="cls-3" d="M94.18,90a2.91,2.91,0,0,0,0,.71,44.58,44.58,0,0,1,.26,6.18,31.27,31.27,0,0,1-1.29,8.28,3.26,3.26,0,0,1-5.92.53.75.75,0,0,1-.07-.12,28.75,28.75,0,0,1-2-5.12c-.48-1.6-.89-3.21-1.19-4.54l2.46-1.5,2.73-1.67,1.29-.79.42-.2,1.48-.87,1-.57a5.8,5.8,0,0,1,.7-.39Z"/><path class="cls-4" d="M158.58,90a3,3,0,0,1,0,.72,42.91,42.91,0,0,0-.26,6.17,31.54,31.54,0,0,0,1.28,8.28,3.27,3.27,0,0,0,5.93.54s.05-.09.07-.13a28.64,28.64,0,0,0,2-5.11c.49-1.61.9-3.22,1.2-4.55l-2.46-1.5-2.73-1.67-1.29-.79-.43-.2-1.47-.86-1-.58a6,6,0,0,0-.71-.39Z"/></g></svg>