<svg id="Layer_2" data-name="Layer 2" xmlns="http://www.w3.org/2000/svg" viewBox="0 0 264.56 228.46"><defs><style>.cls-1{fill:#e5e7ea;}.cls-2{fill:#010101;}.cls-3{fill:none;stroke:#0da84b;stroke-linecap:round;stroke-miterlimit:10;stroke-width:3px;}.cls-4{fill:#0da84b;}.cls-5{fill:#88c657;}.cls-6{fill:#fee000;}</style></defs><title>BarxBuddy Icons</title><ellipse class="cls-1" cx="99.94" cy="197.44" rx="79.32" ry="6.5"/><path class="cls-2" d="M178.92,110.53l0,.1v0Z"/><line class="cls-3" x1="232.21" y1="55.91" x2="246.95" y2="54.33"/><line class="cls-3" x1="229.02" y1="46.7" x2="240.93" y2="37.85"/><line class="cls-3" x1="245.71" y1="70.35" x2="231.59" y2="65.79"/><g id="Layer_1" data-name="Layer 1"><path class="cls-4" d="M150.5,195.24h-.61a11.9,11.9,0,0,1-10.12-5.55,12.39,12.39,0,0,1-.92-1.49.6.6,0,0,0-.07-.18,20.93,20.93,0,0,1-.83-2.84,1.65,1.65,0,0,1,0-.31l-.06-2.78L137,141.88a5.73,5.73,0,0,0-2.35-4.5l30.89,8.3a5.76,5.76,0,0,0-3.82,5.48l.17,19.3a1.77,1.77,0,0,0,0,.23,13.82,13.82,0,0,1,.22,2.06l.1,10.6A11.84,11.84,0,0,1,150.5,195.24Z"/><path class="cls-4" d="M79.1,149.15A5.73,5.73,0,0,0,77,152.87L72.2,186.71a12.46,12.46,0,1,1-24.68-3.46l10.62-75.72,13.1,8.83s2.21,11.77,7.23,18.11C81.68,138.52,75.9,148.06,79.1,149.15Z"/><path class="cls-5" d="M93.08,198.93a12.34,12.34,0,0,1-5.15.55,12.61,12.61,0,0,1-10.71-8.62l-1.36-4.17v0L55.76,129.38a23.86,23.86,0,0,1-1.27-9.95c.52-6.07,1.36-14.84,1.56-16.64l45.71,44.45c-3.61,0-12.26-1.25-10.5,4.5L97.63,172a14.41,14.41,0,0,1,.53,2s0,0,0,0l1.47,4.4,1.52,4.69a13.8,13.8,0,0,1,.39,1.5v0A12.6,12.6,0,0,1,93.08,198.93Z"/><path class="cls-5" d="M219.7,75.09a48.3,48.3,0,0,1-5.06,3c-2.89,1.56-4.17,2.49-6.47,3.87L188.41,93.52a1.45,1.45,0,0,0-.58.62l-7.62,15-.07.06v.06h0C180,111,177,147.59,177,149.06v38a12.47,12.47,0,0,1-24.93,0V152.31a5.72,5.72,0,0,0-5.74-5.75l-23.43.2c-1.22,0-34.69.8-34.69.8h-3l1-.39c-3.32-.63-7.14-3.54-10.88-7.11-5.86-5.58-19.79-29.43-19.79-29.43v-2.09a5.7,5.7,0,0,0-.2-1.49h0a5.66,5.66,0,0,0-1.78-2.84L31.9,85.47l-.19-.13a7.79,7.79,0,0,1,7.65-13.58,1.73,1.73,0,0,1,.28.19L60.48,89.16a5.81,5.81,0,0,0,3.66,1.31l87.68-.24v0l6.25-14.65L162.61,65l1.13-2.65c.1-.22.43-.79.43-.79l2.21-4.93a12.28,12.28,0,0,1,.66-1.38c1-1.78,2.47-3.55,4.23-4.08l4.46-1.38a61.13,61.13,0,0,1,6.6-1.34,18.78,18.78,0,0,1,5.59-.15,15.59,15.59,0,0,1,6.86,3.49l-.11.05,15.69-5.05c3.69-1.94,6.59.28,8,4.21.87,2.4.26,3-1.46,4.88l-9.79,9.41a1.51,1.51,0,0,0,.95,2.6c.73.07,1.45.09,2.34.1s2,0,3.39.11c3.78.19,5-.31,5.85,2.75C220.32,73.33,220.69,74.11,219.7,75.09Z"/><path class="cls-5" d="M84,147.63a5.48,5.48,0,0,0-1.84,1.22s1.9-.79,3.1-1.29H84.1Z"/><path class="cls-4" d="M164.68,81.28l-.17-.23c-3.52-4.81-6.79-12.78-8.82-18.31l9.47-7.58,2.37-1.89c.2-.15.79-.52.79-.52l4.49-3.46a12.48,12.48,0,0,1,1.3-.95l.39.09c-.19,1,1.91,7.73,2.22,13.58.19,3.29.93,10.21-.44,16.71A6.52,6.52,0,0,1,164.68,81.28Z"/></g><polygon class="cls-6" points="181.4 109.45 150.07 89.69 153.74 83.87 184.49 103.27 181.4 109.45"/></svg>