<svg id="Layer_1" data-name="Layer 1" xmlns="http://www.w3.org/2000/svg" viewBox="0 0 266.19 237.93"><defs><style>.cls-1{fill:#fff;}.cls-1,.cls-2{stroke:#0da84b;stroke-miterlimit:10;stroke-width:10px;}.cls-2{fill:#fee000;}</style></defs><title>BarxBuddy Icons</title><path class="cls-1" d="M199.33,190.9l-59.85-1.16a17,17,0,0,1-11.43-4.7,17,17,0,0,0-11.44-4.73l-8-.15.54-66.62,30.07-27.42A41.3,41.3,0,0,0,152.7,56.34a9.9,9.9,0,0,1,19.6-1.75l1.62,8.12a63.59,63.59,0,0,1-.73,28.06l-2.28,9,39.78.8a11.32,11.32,0,0,1,11.09,11.86c-.24,5.34-9.75,65.2-9.8,67.87C211.22,185.8,205.58,191,199.33,190.9Z"/><path class="cls-2" d="M103.16,186.4l-25.07,0-16.23,0a6.26,6.26,0,0,1-6.24-6.08c-.7-24.58-.1-43.55,0-72.45a7.64,7.64,0,0,1,7.64-7.6l14.42,0,25.57,0a5.33,5.33,0,0,1,5.32,5.35l-.1,75.37A5.33,5.33,0,0,1,103.16,186.4Z"/></svg>