<svg id="Layer_2" data-name="Layer 2" xmlns="http://www.w3.org/2000/svg" viewBox="0 0 252.7 237.93"><defs><style>.cls-1{fill:#0da84b;}.cls-2{fill:#fff;}.cls-2,.cls-4,.cls-5{stroke:#0da84b;stroke-miterlimit:10;stroke-width:10px;}.cls-3{fill:#ffde17;}.cls-4,.cls-5{fill:none;}.cls-4{stroke-linecap:round;}</style></defs><title>BarxBuddy Icons</title><g id="Layer_1" data-name="Layer 1"><circle class="cls-1" cx="130.63" cy="207.28" r="11.02"/><path class="cls-2" d="M179.63,112c0,16.84-6.87,27.75-13,36.16s-10.92,14.1-10.92,23v21.42a12.77,12.77,0,0,1-12.88,12.49H117.09a12.77,12.77,0,0,1-12.88-12.49V171.22c0-8.94-4.8-14.64-10.92-23s-13-19.32-13-36.16c0-27,24.38-46.13,49.67-46.13S179.63,85,179.63,112Z"/><rect class="cls-3" x="121.78" y="122.62" width="16.98" height="50.17" rx="8.49"/><rect class="cls-3" x="128.04" y="104.24" width="16.98" height="35.62" rx="8.49" transform="translate(126.29 -60.79) rotate(45)"/><rect class="cls-3" x="115.72" y="104.24" width="16.98" height="35.62" rx="8.49" transform="translate(298.34 120.53) rotate(135)"/><line class="cls-4" x1="130.27" y1="46.72" x2="130.27" y2="26.61"/><line class="cls-4" x1="172.52" y1="60.93" x2="186.74" y2="46.72"/><line class="cls-4" x1="87.41" y1="60.93" x2="73.19" y2="46.72"/><line class="cls-5" x1="105.97" y1="169" x2="155.72" y2="169"/><line class="cls-5" x1="105.97" y1="186.88" x2="155.72" y2="186.88"/></g></svg>