<svg id="Layer_2" data-name="Layer 2" xmlns="http://www.w3.org/2000/svg" viewBox="0 0 252.7 237.93"><defs><style>.cls-1{fill:#fff;stroke:#0da84b;stroke-width:9px;}.cls-1,.cls-2{stroke-miterlimit:10;}.cls-2{fill:#fee000;stroke:#27b34c;stroke-width:10px;}</style></defs><title>BarxBuddy Icons</title><g id="Layer_1" data-name="Layer 1"><path class="cls-1" d="M213.48,206.39l-.15-48.94a1.89,1.89,0,0,0-3.22-1.34L199,167.24l-29.37-29.37a1.88,1.88,0,0,0-2.66,0l-23.88,23.88a1.88,1.88,0,0,0,0,2.66l29.37,29.37L161.33,204.9a1.87,1.87,0,0,0-.4,2,2,2,0,0,0,.41.61,1.87,1.87,0,0,0,1.33.55l48.93.15A1.86,1.86,0,0,0,213.48,206.39Z"/><path class="cls-1" d="M37.5,32.29l.15,48.93a1.89,1.89,0,0,0,3.22,1.35L52,71.44l29.37,29.37a1.88,1.88,0,0,0,2.66,0L107.9,76.94a1.89,1.89,0,0,0,0-2.67L78.53,44.91,89.65,33.78a1.85,1.85,0,0,0,.4-2.05,1.69,1.69,0,0,0-.41-.61,1.85,1.85,0,0,0-1.33-.55l-48.93-.15A1.86,1.86,0,0,0,37.5,32.29Z"/><circle class="cls-2" cx="124.01" cy="119.77" r="20.79"/></g></svg>