<svg id="Layer_1" data-name="Layer 1" xmlns="http://www.w3.org/2000/svg" viewBox="0 0 252.7 237.93"><defs><style>.cls-1{fill:#fff;stroke:#0da84b;stroke-width:10px;}.cls-1,.cls-2{stroke-miterlimit:10;}.cls-2{fill:#fee000;stroke:#fff;stroke-width:8px;}</style></defs><title>BarxBuddy Icons</title><path class="cls-1" d="M183.7,146a81.72,81.72,0,0,1-19.6,30.53c-9.83,9.61-22.72,17.24-38.29,22.69a11.62,11.62,0,0,1-3.72.65H122a11.67,11.67,0,0,1-2.28-.22,11.33,11.33,0,0,1-1.57-.43c-15.59-5.44-28.49-13.07-38.34-22.67A81.69,81.69,0,0,1,60.17,146c-7.92-21.48-7.47-45.14-7.1-64.15V81.6c.07-1.57.12-3.22.15-5A17.18,17.18,0,0,1,69.4,59.72c18.64-1,33.07-7.12,45.39-19.13l.11-.1a10.38,10.38,0,0,1,14.1,0l.11.1c12.32,12,26.74,18.09,45.39,19.13a17.18,17.18,0,0,1,16.18,16.84c0,1.83.08,3.48.15,5v.12C191.19,100.77,191.64,124.47,183.7,146Z"/><path class="cls-2" d="M167.72,105.7l-38.55,38.57-9.5,9.5a10.37,10.37,0,0,1-14.61,0L86.71,135.4a10.33,10.33,0,1,1,14.61-14.61l11.05,11.07,16.8-16.81,24-23.94a10.32,10.32,0,1,1,14.6,14.59Z"/></svg>