<svg xmlns="http://www.w3.org/2000/svg" width="32" height="30" viewBox="0 0 32 30">
  <g id="tick" transform="translate(0 0)">
    <g id="Oval" transform="translate(0 5)" fill="none" stroke="#01273f" stroke-miterlimit="10" stroke-width="1">
      <circle cx="12.5" cy="12.5" r="12.5" stroke="none"/>
      <circle cx="12.5" cy="12.5" r="12" fill="none"/>
    </g>
    <g id="tick_2" data-name="tick 2" transform="translate(5)">
      <path id="Path" d="M8.126,16.488a74.423,74.423,0,0,1,6.2-7.788A36.879,36.879,0,0,1,20.46,3.015,29.863,29.863,0,0,1,25.954.053.771.771,0,0,1,26.181,0,1.128,1.128,0,0,1,27,.37c-.173.17-.4.4-.685.665-.526.5-.92.869-.976.921-3.109,2.886-5.733,5.9-5.733,5.9a78.248,78.248,0,0,0-5.428,7.133c-.3.449-.568.881-.568.881-.571.921-.894,1.559-3.3,5.448C9.346,22.881,8.542,24.186,8,25H7.444a30.127,30.127,0,0,1-2.485-4.823,26.04,26.04,0,0,0-2.65-4.927,2.08,2.08,0,0,0-.67-.568A2.441,2.441,0,0,0,0,14.512a2.29,2.29,0,0,1,.194-.685A3.412,3.412,0,0,1,3.209,12.1c2.15.011,3.655,2.316,4.334,3.356A9.231,9.231,0,0,1,8.126,16.488Z" fill="#01273f"/>
    </g>
  </g>
</svg>
